# xmcd CD database file
#
# Track frame offsets:
#	150
#	13267
#	28964
#
# Disc length: 597 seconds
#
# Revision: 0
# Processed by: cddbd v1.5.1PL0 Copyright (c) Steve Scherf et al.
# Submitted via: CDex 1.51
#
DISCID=21025303
DTITLE=Shania Twain - Up!
DYEAR=2003
DGENRE=Country
TTITLE0=Up!
TTITLE1=You're Still the One
TTITLE2=I'm Holdin' On To Love
EXTD=YEAR: 2003
EXTT0=
EXTT1=
EXTT2=
PLAYORDER=
